<svg width="40" height="40" viewBox="0 0 40 40" fill="none" xmlns="http://www.w3.org/2000/svg">
<path d="M6.66667 20C6.66667 20.442 6.84226 20.8659 7.15482 21.1785C7.46738 21.4911 7.89131 21.6666 8.33333 21.6666H20.9833L17.15 25.4833C16.9938 25.6383 16.8698 25.8226 16.7852 26.0257C16.7006 26.2288 16.657 26.4466 16.657 26.6666C16.657 26.8867 16.7006 27.1045 16.7852 27.3076C16.8698 27.5107 16.9938 27.695 17.15 27.85C17.3049 28.0062 17.4893 28.1302 17.6924 28.2148C17.8955 28.2994 18.1133 28.343 18.3333 28.343C18.5534 28.343 18.7712 28.2994 18.9743 28.2148C19.1774 28.1302 19.3617 28.0062 19.5167 27.85L26.1833 21.1833C26.3351 21.0248 26.454 20.8379 26.5333 20.6333C26.7 20.2275 26.7 19.7724 26.5333 19.3666C26.454 19.1621 26.3351 18.9752 26.1833 18.8166L19.5167 12.15C19.3613 11.9946 19.1768 11.8713 18.9738 11.7872C18.7707 11.7031 18.5531 11.6598 18.3333 11.6598C18.1136 11.6598 17.896 11.7031 17.6929 11.7872C17.4899 11.8713 17.3054 11.9946 17.15 12.15C16.9946 12.3054 16.8713 12.4899 16.7872 12.6929C16.7031 12.8959 16.6598 13.1135 16.6598 13.3333C16.6598 13.5531 16.7031 13.7707 16.7872 13.9737C16.8713 14.1768 16.9946 14.3612 17.15 14.5166L20.9833 18.3333H8.33333C7.89131 18.3333 7.46738 18.5089 7.15482 18.8215C6.84226 19.134 6.66667 19.558 6.66667 20ZM28.3333 3.33331H11.6667C10.3406 3.33331 9.06882 3.8601 8.13113 4.79778C7.19345 5.73546 6.66667 7.00723 6.66667 8.33331V13.3333C6.66667 13.7753 6.84226 14.1993 7.15482 14.5118C7.46738 14.8244 7.89131 15 8.33333 15C8.77536 15 9.19928 14.8244 9.51185 14.5118C9.82441 14.1993 10 13.7753 10 13.3333V8.33331C10 7.89129 10.1756 7.46736 10.4882 7.1548C10.8007 6.84224 11.2246 6.66665 11.6667 6.66665H28.3333C28.7754 6.66665 29.1993 6.84224 29.5118 7.1548C29.8244 7.46736 30 7.89129 30 8.33331V31.6666C30 32.1087 29.8244 32.5326 29.5118 32.8452C29.1993 33.1577 28.7754 33.3333 28.3333 33.3333H11.6667C11.2246 33.3333 10.8007 33.1577 10.4882 32.8452C10.1756 32.5326 10 32.1087 10 31.6666V26.6666C10 26.2246 9.82441 25.8007 9.51185 25.4881C9.19928 25.1756 8.77536 25 8.33333 25C7.89131 25 7.46738 25.1756 7.15482 25.4881C6.84226 25.8007 6.66667 26.2246 6.66667 26.6666V31.6666C6.66667 32.9927 7.19345 34.2645 8.13113 35.2022C9.06882 36.1399 10.3406 36.6666 11.6667 36.6666H28.3333C29.6594 36.6666 30.9312 36.1399 31.8689 35.2022C32.8066 34.2645 33.3333 32.9927 33.3333 31.6666V8.33331C33.3333 7.00723 32.8066 5.73546 31.8689 4.79778C30.9312 3.8601 29.6594 3.33331 28.3333 3.33331Z" fill="white"/>
</svg>
