<svg width="40" height="40" viewBox="0 0 40 40" fill="none" xmlns="http://www.w3.org/2000/svg">
<g clip-path="url(#clip0_2_30)">
<path d="M39.375 12.9512V15.5637C39.375 15.8953 39.2433 16.2132 39.0089 16.4476C38.7745 16.6821 38.4565 16.8137 38.125 16.8137H1.875C1.54348 16.8137 1.22554 16.6821 0.991117 16.4476C0.756696 16.2132 0.625 15.8953 0.625 15.5637V12.9512H39.375Z" fill="white"/>
<path d="M0.625 13.0675L18.6087 1.02375C19.0204 0.748056 19.5046 0.600868 20 0.600868C20.4954 0.600868 20.9796 0.748056 21.3913 1.02375L39.375 13.0675" fill="white"/>
<path d="M24.375 35.5675H38.125C38.4565 35.5675 38.7745 35.6992 39.0089 35.9336C39.2433 36.168 39.375 36.486 39.375 36.8175V39.3175H0.625V36.8175C0.625 36.486 0.756696 36.168 0.991117 35.9336C1.22554 35.6992 1.54348 35.5675 1.875 35.5675H15" fill="white"/>
<path d="M3.125 16.8175H9.375V18.0675C9.375 18.399 9.2433 18.717 9.00888 18.9514C8.77446 19.1858 8.45652 19.3175 8.125 19.3175H4.375C4.04348 19.3175 3.72554 19.1858 3.49112 18.9514C3.2567 18.717 3.125 18.399 3.125 18.0675V16.8175ZM4.375 33.0675H8.125C8.45652 33.0675 8.77446 33.1992 9.00888 33.4336C9.2433 33.668 9.375 33.986 9.375 34.3175V35.5675H3.125V34.3175C3.125 33.986 3.2567 33.668 3.49112 33.4336C3.72554 33.1992 4.04348 33.0675 4.375 33.0675Z" fill="white"/>
<path d="M8.125 19.3175H4.375V33.0675H8.125V19.3175Z" fill="white"/>
<path d="M30.625 16.8175H36.875V18.0675C36.875 18.399 36.7433 18.717 36.5089 18.9514C36.2745 19.1858 35.9565 19.3175 35.625 19.3175H31.875C31.5435 19.3175 31.2255 19.1858 30.9911 18.9514C30.7567 18.717 30.625 18.399 30.625 18.0675V16.8175ZM31.875 33.0675H35.625C35.9565 33.0675 36.2745 33.1992 36.5089 33.4336C36.7433 33.668 36.875 33.986 36.875 34.3175V35.5675H30.625V34.3175C30.625 33.986 30.7567 33.668 30.9911 33.4336C31.2255 33.1992 31.5435 33.0675 31.875 33.0675Z" fill="white"/>
<path d="M35.625 19.3175H31.875V33.0675H35.625V19.3175Z" fill="white"/>
<path d="M20 9.3175C21.0355 9.3175 21.875 8.47803 21.875 7.4425C21.875 6.40697 21.0355 5.5675 20 5.5675C18.9645 5.5675 18.125 6.40697 18.125 7.4425C18.125 8.47803 18.9645 9.3175 20 9.3175Z" fill="white"/>
<path d="M20 31.8175C24.1421 31.8175 27.5 28.4596 27.5 24.3175C27.5 20.1754 24.1421 16.8175 20 16.8175C15.8579 16.8175 12.5 20.1754 12.5 24.3175C12.5 28.4596 15.8579 31.8175 20 31.8175Z" fill="#FEDC55"/>
<path d="M28.125 24.375C28.1264 22.885 27.7181 21.4232 26.9446 20.1496C26.1711 18.8761 25.0623 17.8397 23.7395 17.1539C22.4166 16.4681 20.9306 16.1593 19.4441 16.2613C17.9575 16.3633 16.5276 16.872 15.3108 17.732C14.0939 18.592 13.137 19.77 12.5446 21.1372C11.9523 22.5045 11.7473 24.0083 11.9521 25.4842C12.157 26.9601 12.7637 28.3513 13.7061 29.5055C14.6484 30.6598 15.8899 31.5327 17.295 32.0288C17.4516 32.0831 17.6235 32.073 17.7727 32.0007C17.9219 31.9284 18.0363 31.7998 18.0906 31.6431C18.145 31.4865 18.1349 31.3147 18.0626 31.1655C17.9903 31.0162 17.8616 30.9019 17.705 30.8475C16.1765 30.3062 14.8886 29.2421 14.0687 27.8432C13.2488 26.4443 12.9497 24.8006 13.2243 23.2026C13.4989 21.6045 14.3295 20.1549 15.5694 19.11C16.8092 18.065 18.3785 17.4919 20 17.4919C21.6215 17.4919 23.1908 18.065 24.4306 19.11C25.6705 20.1549 26.5011 21.6045 26.7757 23.2026C27.0503 24.8006 26.7512 26.4443 25.9313 27.8432C25.1114 29.2421 23.8235 30.3062 22.295 30.8475C22.1557 30.8962 22.0382 30.9925 21.9631 31.1196C21.8881 31.2466 21.8604 31.396 21.8849 31.5415C21.9095 31.687 21.9847 31.8191 22.0972 31.9144C22.2098 32.0098 22.3525 32.0622 22.5 32.0625C22.5697 32.0627 22.639 32.0512 22.705 32.0288C24.2907 31.4728 25.6643 30.4374 26.6354 29.0661C27.6065 27.6948 28.1271 26.0554 28.125 24.375ZM37.5 18.125V17.5H38.125C38.6223 17.5 39.0992 17.3025 39.4508 16.9508C39.8025 16.5992 40 16.1223 40 15.625V13.125C40 13.105 39.99 13.0875 39.9888 13.0675C39.9848 13.0251 39.9764 12.9832 39.9638 12.9425C39.9275 12.827 39.8584 12.7245 39.765 12.6475C39.75 12.635 39.74 12.6175 39.7237 12.605L21.7388 0.562501C21.2249 0.216422 20.6195 0.0315514 20 0.0315514C19.3805 0.0315514 18.7751 0.216422 18.2612 0.562501L0.2775 12.605C0.26 12.6163 0.25125 12.6338 0.23625 12.6475C0.141469 12.7233 0.0721194 12.8262 0.0375 12.9425C0.0248505 12.9832 0.0164719 13.0251 0.0125 13.0675C0.0125 13.0875 0.00125 13.1038 0.00125 13.125V15.625C0.00124989 16.1221 0.198622 16.5988 0.549983 16.9504C0.901343 17.302 1.37794 17.4997 1.875 17.5H2.5V18.125C2.5016 18.5114 2.62255 18.8879 2.8463 19.2029C3.07006 19.518 3.38568 19.7562 3.75 19.885V32.555C3.38568 32.6838 3.07006 32.922 2.8463 33.2371C2.62255 33.5521 2.5016 33.9286 2.5 34.315V35H1.875C1.37772 35 0.900805 35.1975 0.549175 35.5492C0.197544 35.9008 0 36.3777 0 36.875L0 39.375C0 39.5408 0.065848 39.6997 0.183058 39.8169C0.300269 39.9342 0.45924 40 0.625 40H39.375C39.5408 40 39.6997 39.9342 39.8169 39.8169C39.9342 39.6997 40 39.5408 40 39.375V36.875C40 36.3777 39.8025 35.9008 39.4508 35.5492C39.0992 35.1975 38.6223 35 38.125 35H37.5V34.315C37.4984 33.9286 37.3774 33.5521 37.1537 33.2371C36.9299 32.922 36.6143 32.6838 36.25 32.555V19.885C36.6143 19.7562 36.9299 19.518 37.1537 19.2029C37.3774 18.8879 37.4984 18.5114 37.5 18.125ZM18.9575 1.60125C19.2657 1.3935 19.6289 1.28251 20.0006 1.28251C20.3723 1.28251 20.7355 1.3935 21.0437 1.60125L37.3187 12.5H2.68125L18.9575 1.60125ZM3.75 34.315C3.75144 34.1767 3.79929 34.0428 3.88587 33.9349C3.97246 33.8271 4.09276 33.7514 4.2275 33.72C4.27521 33.7362 4.32477 33.7462 4.375 33.75H8.125C8.17523 33.7462 8.22479 33.7362 8.2725 33.72C8.40724 33.7514 8.52754 33.8271 8.61413 33.9349C8.70071 34.0428 8.74856 34.1767 8.75 34.315V34.94H3.75V34.315ZM4.375 18.75C4.20924 18.75 4.05027 18.6842 3.93306 18.5669C3.81585 18.4497 3.75 18.2908 3.75 18.125V17.5H8.75V18.125C8.75 18.2908 8.68415 18.4497 8.56694 18.5669C8.44973 18.6842 8.29076 18.75 8.125 18.75H4.375ZM7.5 20V32.44H5V20H7.5ZM38.125 36.25C38.2908 36.25 38.4497 36.3159 38.5669 36.4331C38.6842 36.5503 38.75 36.7092 38.75 36.875V38.75H1.25V36.875C1.25 36.7092 1.31585 36.5503 1.43306 36.4331C1.55027 36.3159 1.70924 36.25 1.875 36.25H15C15.1658 36.25 15.3247 36.1842 15.4419 36.0669C15.5592 35.9497 15.625 35.7908 15.625 35.625C15.625 35.4592 15.5592 35.3003 15.4419 35.1831C15.3247 35.0659 15.1658 35 15 35H10V34.315C9.9984 33.9286 9.87745 33.5521 9.6537 33.2371C9.42994 32.922 9.11432 32.6838 8.75 32.555V19.885C9.11432 19.7562 9.42994 19.518 9.6537 19.2029C9.87745 18.8879 9.9984 18.5114 10 18.125V17.5H13.75C13.9158 17.5 14.0747 17.4342 14.1919 17.3169C14.3092 17.1997 14.375 17.0408 14.375 16.875C14.375 16.7092 14.3092 16.5503 14.1919 16.4331C14.0747 16.3158 13.9158 16.25 13.75 16.25H1.875C1.70924 16.25 1.55027 16.1842 1.43306 16.0669C1.31585 15.9497 1.25 15.7908 1.25 15.625V13.75H38.75V15.625C38.75 15.7908 38.6842 15.9497 38.5669 16.0669C38.4497 16.1842 38.2908 16.25 38.125 16.25H25.625C25.4592 16.25 25.3003 16.3158 25.1831 16.4331C25.0658 16.5503 25 16.7092 25 16.875C25 17.0408 25.0658 17.1997 25.1831 17.3169C25.3003 17.4342 25.4592 17.5 25.625 17.5H30V18.125C30.0016 18.5114 30.1226 18.8879 30.3463 19.2029C30.5701 19.518 30.8857 19.7562 31.25 19.885V32.555C30.8857 32.6838 30.5701 32.922 30.3463 33.2371C30.1226 33.5521 30.0016 33.9286 30 34.315V35H24.375C24.2092 35 24.0503 35.0659 23.9331 35.1831C23.8158 35.3003 23.75 35.4592 23.75 35.625C23.75 35.7908 23.8158 35.9497 23.9331 36.0669C24.0503 36.1842 24.2092 36.25 24.375 36.25H38.125ZM35.625 33.75C35.6752 33.7462 35.7248 33.7362 35.7725 33.72C35.9072 33.7514 36.0275 33.8271 36.1141 33.9349C36.2007 34.0428 36.2486 34.1767 36.25 34.315V34.94H31.25V34.315C31.2514 34.1767 31.2993 34.0428 31.3859 33.9349C31.4725 33.8271 31.5928 33.7514 31.7275 33.72C31.7752 33.7362 31.8248 33.7462 31.875 33.75H35.625ZM32.5 32.44V20H35V32.44H32.5ZM35.625 18.75H31.875C31.7092 18.75 31.5503 18.6842 31.4331 18.5669C31.3158 18.4497 31.25 18.2908 31.25 18.125V17.5H36.25V18.125C36.25 18.2908 36.1842 18.4497 36.0669 18.5669C35.9497 18.6842 35.7908 18.75 35.625 18.75ZM20 4.94125C19.5055 4.94125 19.0222 5.08787 18.6111 5.36258C18.2 5.63728 17.8795 6.02773 17.6903 6.48454C17.5011 6.94136 17.4516 7.44402 17.548 7.92898C17.6445 8.41393 17.8826 8.85939 18.2322 9.20902C18.5819 9.55865 19.0273 9.79675 19.5123 9.89321C19.9972 9.98968 20.4999 9.94017 20.9567 9.75095C21.4135 9.56173 21.804 9.2413 22.0787 8.83018C22.3534 8.41905 22.5 7.9357 22.5 7.44125C22.5 6.77821 22.2366 6.14232 21.7678 5.67348C21.2989 5.20464 20.663 4.94125 20 4.94125ZM20 8.69125C19.7528 8.69125 19.5111 8.61794 19.3055 8.48059C19.1 8.34324 18.9398 8.14801 18.8451 7.91961C18.7505 7.6912 18.7258 7.43986 18.774 7.19739C18.8223 6.95491 18.9413 6.73218 19.1161 6.55737C19.2909 6.38255 19.5137 6.2635 19.7561 6.21527C19.9986 6.16704 20.2499 6.19179 20.4784 6.2864C20.7068 6.38101 20.902 6.54123 21.0393 6.74679C21.1767 6.95235 21.25 7.19402 21.25 7.44125C21.25 7.77277 21.1183 8.09071 20.8839 8.32513C20.6495 8.55956 20.3315 8.69125 20 8.69125ZM20.625 27.5H19.375C19.0435 27.5 18.7255 27.3683 18.4911 27.1339C18.2567 26.8995 18.125 26.5815 18.125 26.25C18.125 26.0842 18.0592 25.9253 17.9419 25.8081C17.8247 25.6909 17.6658 25.625 17.5 25.625C17.3342 25.625 17.1753 25.6909 17.0581 25.8081C16.9408 25.9253 16.875 26.0842 16.875 26.25C16.875 26.913 17.1384 27.5489 17.6072 28.0178C18.0761 28.4866 18.712 28.75 19.375 28.75V29.375C19.375 29.5408 19.4408 29.6997 19.5581 29.8169C19.6753 29.9342 19.8342 30 20 30C20.1658 30 20.3247 29.9342 20.4419 29.8169C20.5592 29.6997 20.625 29.5408 20.625 29.375V28.75C21.288 28.75 21.9239 28.4866 22.3928 28.0178C22.8616 27.5489 23.125 26.913 23.125 26.25C23.125 25.587 22.8616 24.9511 22.3928 24.4822C21.9239 24.0134 21.288 23.75 20.625 23.75H19.375C19.0435 23.75 18.7255 23.6183 18.4911 23.3839C18.2567 23.1495 18.125 22.8315 18.125 22.5C18.125 22.1685 18.2567 21.8505 18.4911 21.6161C18.7255 21.3817 19.0435 21.25 19.375 21.25H20.625C20.9565 21.25 21.2745 21.3817 21.5089 21.6161C21.7433 21.8505 21.875 22.1685 21.875 22.5C21.875 22.6658 21.9408 22.8247 22.0581 22.9419C22.1753 23.0592 22.3342 23.125 22.5 23.125C22.6658 23.125 22.8247 23.0592 22.9419 22.9419C23.0592 22.8247 23.125 22.6658 23.125 22.5C23.125 21.837 22.8616 21.2011 22.3928 20.7322C21.9239 20.2634 21.288 20 20.625 20V19.375C20.625 19.2092 20.5592 19.0503 20.4419 18.9331C20.3247 18.8158 20.1658 18.75 20 18.75C19.8342 18.75 19.6753 18.8158 19.5581 18.9331C19.4408 19.0503 19.375 19.2092 19.375 19.375V20C18.712 20 18.0761 20.2634 17.6072 20.7322C17.1384 21.2011 16.875 21.837 16.875 22.5C16.875 23.163 17.1384 23.7989 17.6072 24.2678C18.0761 24.7366 18.712 25 19.375 25H20.625C20.9565 25 21.2745 25.1317 21.5089 25.3661C21.7433 25.6005 21.875 25.9185 21.875 26.25C21.875 26.5815 21.7433 26.8995 21.5089 27.1339C21.2745 27.3683 20.9565 27.5 20.625 27.5ZM21.3263 33.415L20.625 34.1163V31.875C20.625 31.7092 20.5592 31.5503 20.4419 31.4331C20.3247 31.3159 20.1658 31.25 20 31.25C19.8342 31.25 19.6753 31.3159 19.5581 31.4331C19.4408 31.5503 19.375 31.7092 19.375 31.875V34.1163L18.6737 33.415C18.5559 33.3012 18.398 33.2382 18.2341 33.2396C18.0703 33.241 17.9135 33.3067 17.7976 33.4226C17.6817 33.5385 17.616 33.6953 17.6146 33.8591C17.6132 34.023 17.6762 34.1809 17.79 34.2988L19.5563 36.065C19.6143 36.1232 19.6833 36.1694 19.7592 36.2009C19.8351 36.2324 19.9165 36.2486 19.9987 36.2486C20.081 36.2486 20.1624 36.2324 20.2383 36.2009C20.3142 36.1694 20.3832 36.1232 20.4412 36.065L22.2075 34.2988C22.3214 34.1809 22.3843 34.023 22.3829 33.8591C22.3815 33.6953 22.3158 33.5385 22.1999 33.4226C22.084 33.3067 21.9272 33.241 21.7634 33.2396C21.5995 33.2382 21.4416 33.3012 21.3237 33.415H21.3263Z" fill="black"/>
</g>
<defs>
<clipPath id="clip0_2_30">
<rect width="40" height="40" fill="white"/>
</clipPath>
</defs>
</svg>
