<svg width="40" height="40" viewBox="0 0 40 40" fill="none" xmlns="http://www.w3.org/2000/svg">
<path fill-rule="evenodd" clip-rule="evenodd" d="M9.50623 4.46438L9.77493 2.75687C9.88118 2.07562 9.41874 1.435 8.73749 1.32688C8.05624 1.21875 7.41246 1.68437 7.30621 2.36625L6.52496 7.30438C6.41246 7.98626 6.88131 8.62688 7.56256 8.73438L12.5 9.51687C13.1812 9.62499 13.825 9.15937 13.9313 8.4775C14.0375 7.79625 13.5749 7.15563 12.8937 7.0475L10.675 6.69624C13.3125 4.83999 16.5312 3.75 20 3.75C28.9688 3.75 36.25 11.0312 36.25 20C36.25 28.9688 28.9688 36.25 20 36.25C11.0312 36.25 3.75 28.9688 3.75 20C3.75 19.31 3.1875 18.75 2.5 18.75C1.8125 18.75 1.25 19.31 1.25 20C1.25 30.3481 9.65 38.75 20 38.75C30.35 38.75 38.75 30.3481 38.75 20C38.75 9.65188 30.35 1.25 20 1.25C16.1125 1.25 12.5 2.43563 9.50623 4.46438ZM18.75 7.5V20C18.75 20.3312 18.8813 20.6494 19.1188 20.8838L25.3688 27.1338C25.8563 27.6219 26.6437 27.6219 27.1312 27.1338C27.6249 26.6463 27.6249 25.8537 27.1312 25.3662L21.25 19.4825V7.5C21.25 6.81 20.6875 6.25 20 6.25C19.3125 6.25 18.75 6.81 18.75 7.5Z" fill="white"/>
</svg>
