<svg width="40" height="40" viewBox="0 0 40 40" fill="none" xmlns="http://www.w3.org/2000/svg">
<path d="M32.5 40C33.8787 40 35 38.8787 35 37.5V2.5C35 1.12125 33.8787 0 32.5 0H16.25C15.2262 0 13.9575 0.525625 13.2325 1.25L6.25 8.23187C5.52562 8.95625 5 10.225 5 11.25V37.5C5 38.8787 6.12125 40 7.5 40H32.5ZM32.5 2.5V37.5H7.5V11.25H13.75C15.1287 11.25 16.25 10.1287 16.25 8.75V2.5H32.5ZM13.75 4.2675V8.75H9.2675L13.75 4.2675Z" fill="white"/>
<path d="M20 10H27.5C27.8315 10 28.1495 9.8683 28.3839 9.63388C28.6183 9.39946 28.75 9.08152 28.75 8.75C28.75 8.41848 28.6183 8.10054 28.3839 7.86612C28.1495 7.6317 27.8315 7.5 27.5 7.5H20C19.6685 7.5 19.3505 7.6317 19.1161 7.86612C18.8817 8.10054 18.75 8.41848 18.75 8.75C18.75 9.08152 18.8817 9.39946 19.1161 9.63388C19.3505 9.8683 19.6685 10 20 10ZM27.5 13.75H12.5C12.1685 13.75 11.8505 13.8817 11.6161 14.1161C11.3817 14.3505 11.25 14.6685 11.25 15C11.25 15.3315 11.3817 15.6495 11.6161 15.8839C11.8505 16.1183 12.1685 16.25 12.5 16.25H27.5C27.8315 16.25 28.1495 16.1183 28.3839 15.8839C28.6183 15.6495 28.75 15.3315 28.75 15C28.75 14.6685 28.6183 14.3505 28.3839 14.1161C28.1495 13.8817 27.8315 13.75 27.5 13.75ZM27.5 20H12.5C12.1685 20 11.8505 20.1317 11.6161 20.3661C11.3817 20.6005 11.25 20.9185 11.25 21.25C11.25 21.5815 11.3817 21.8995 11.6161 22.1339C11.8505 22.3683 12.1685 22.5 12.5 22.5H27.5C27.8315 22.5 28.1495 22.3683 28.3839 22.1339C28.6183 21.8995 28.75 21.5815 28.75 21.25C28.75 20.9185 28.6183 20.6005 28.3839 20.3661C28.1495 20.1317 27.8315 20 27.5 20ZM27.5 26.25H12.5C12.1685 26.25 11.8505 26.3817 11.6161 26.6161C11.3817 26.8505 11.25 27.1685 11.25 27.5C11.25 27.8315 11.3817 28.1495 11.6161 28.3839C11.8505 28.6183 12.1685 28.75 12.5 28.75H27.5C27.8315 28.75 28.1495 28.6183 28.3839 28.3839C28.6183 28.1495 28.75 27.8315 28.75 27.5C28.75 27.1685 28.6183 26.8505 28.3839 26.6161C28.1495 26.3817 27.8315 26.25 27.5 26.25ZM27.5 32.5H12.5C12.1685 32.5 11.8505 32.6317 11.6161 32.8661C11.3817 33.1005 11.25 33.4185 11.25 33.75C11.25 34.0815 11.3817 34.3995 11.6161 34.6339C11.8505 34.8683 12.1685 35 12.5 35H27.5C27.8315 35 28.1495 34.8683 28.3839 34.6339C28.6183 34.3995 28.75 34.0815 28.75 33.75C28.75 33.4185 28.6183 33.1005 28.3839 32.8661C28.1495 32.6317 27.8315 32.5 27.5 32.5Z" fill="white"/>
</svg>
